<svg xmlns="http://www.w3.org/2000/svg" width="413.5" height="154" viewBox="0 0 413.5 154"><g transform="translate(-369 -367.5)"><line y2="153" transform="translate(370 367.5)" fill="none" stroke="#fff" stroke-width="2"/><line x2="412.5" transform="translate(370 520.5)" fill="none" stroke="#fff" stroke-width="2"/><g transform="translate(391.5 425)" fill="#fff" stroke="#fff" stroke-width="1"><rect width="18" height="96" rx="9" stroke="none"/><rect x="0.5" y="0.5" width="17" height="95" rx="8.5" fill="none"/></g><g transform="translate(418.5 395)" fill="#fff" stroke="#fff" stroke-width="1"><rect width="18" height="126" rx="9" stroke="none"/><rect x="0.5" y="0.5" width="17" height="125" rx="8.5" fill="none"/></g><g transform="translate(443.5 458)" fill="#fff" stroke="#fff" stroke-width="1"><rect width="18" height="63" rx="9" stroke="none"/><rect x="0.5" y="0.5" width="17" height="62" rx="8.5" fill="none"/></g><g transform="translate(468.5 444)" fill="#fff" stroke="#fff" stroke-width="1"><rect width="18" height="77" rx="9" stroke="none"/><rect x="0.5" y="0.5" width="17" height="76" rx="8.5" fill="none"/></g><g transform="translate(493.5 417)" fill="#fff" stroke="#fff" stroke-width="1"><rect width="18" height="104" rx="9" stroke="none"/><rect x="0.5" y="0.5" width="17" height="103" rx="8.5" fill="none"/></g><g transform="translate(520.5 455)" fill="#fff" stroke="#fff" stroke-width="1"><rect width="18" height="66" rx="9" stroke="none"/><rect x="0.5" y="0.5" width="17" height="65" rx="8.5" fill="none"/></g><g transform="translate(547.5 436)" fill="#fff" stroke="#fff" stroke-width="1"><rect width="18" height="85" rx="9" stroke="none"/><rect x="0.5" y="0.5" width="17" height="84" rx="8.5" fill="none"/></g><g transform="translate(574.5 371)" fill="#fff" stroke="#fff" stroke-width="1"><rect width="18" height="150" rx="9" stroke="none"/><rect x="0.5" y="0.5" width="17" height="149" rx="8.5" fill="none"/></g><g transform="translate(601.5 417)" fill="#fff" stroke="#fff" stroke-width="1"><rect width="18" height="104" rx="9" stroke="none"/><rect x="0.5" y="0.5" width="17" height="103" rx="8.5" fill="none"/></g><g transform="translate(628.5 478.5)" fill="#fff" stroke="#fff" stroke-width="1"><rect width="18" height="42" rx="9" stroke="none"/><rect x="0.5" y="0.5" width="17" height="41" rx="8.5" fill="none"/></g><g transform="translate(653.5 458)" fill="#fff" stroke="#fff" stroke-width="1"><rect width="18" height="62.5" rx="9" stroke="none"/><rect x="0.5" y="0.5" width="17" height="61.5" rx="8.5" fill="none"/></g><g transform="translate(683.5 436)" fill="#fff" stroke="#fff" stroke-width="1"><rect width="18" height="85" rx="9" stroke="none"/><rect x="0.5" y="0.5" width="17" height="84" rx="8.5" fill="none"/></g><g transform="translate(713.5 390.5)" fill="#fff" stroke="#fff" stroke-width="1"><rect width="18" height="130" rx="9" stroke="none"/><rect x="0.5" y="0.5" width="17" height="129" rx="8.5" fill="none"/></g><g transform="translate(743.5 425)" fill="#fff" stroke="#fff" stroke-width="1"><rect width="18" height="96" rx="9" stroke="none"/><rect x="0.5" y="0.5" width="17" height="95" rx="8.5" fill="none"/></g></g></svg>