<svg xmlns="http://www.w3.org/2000/svg" xmlns:xlink="http://www.w3.org/1999/xlink" width="436.126" height="198.219" viewBox="0 0 436.126 198.219">
  <defs>
    <clipPath id="clip">
      <use xlink:href="#fill"/>
    </clipPath>
  </defs>
  <g id="Group_488" data-name="Group 488" transform="translate(-983.815 -354.357)">
    <g id="noun-document-5188149" transform="translate(938.469 157.096)">
      <path id="Path_1079" data-name="Path 1079" d="M233.411,167.5h25.917a9.367,9.367,0,0,1,6.478,2.614l7,6.674h0a9.374,9.374,0,0,0,6.479,2.614h19.265a4.255,4.255,0,1,1,.086,8.509H241.792a9.417,9.417,0,0,0-9.417,9.417v45.5a4.175,4.175,0,0,0,1.339,2.959,4.224,4.224,0,0,0,7.148-3.088V205.6a9.417,9.417,0,0,1,9.417-9.417h61.485a9.417,9.417,0,0,1,9.415,9.417V244.86a9.418,9.418,0,0,1-9.415,9.415H233.411A9.418,9.418,0,0,1,224,244.86V176.915a9.418,9.418,0,0,1,9.415-9.415Z" transform="translate(-178.148 72.584)" fill="#fff" stroke="#fff" stroke-width="1"/>
    </g>
    <g id="noun-document-5188149-2" data-name="noun-document-5188149" transform="translate(1165.016 114.773)">
      <path id="Path_1079-2" data-name="Path 1079" d="M228.368,167.5h12.037a4.351,4.351,0,0,1,3.009,1.214l3.25,3.1h0a4.353,4.353,0,0,0,3.009,1.214h8.947a1.976,1.976,0,1,1,.04,3.952h-26.4a4.374,4.374,0,0,0-4.374,4.374v21.134a1.939,1.939,0,0,0,.622,1.374,1.962,1.962,0,0,0,3.32-1.434V185.193a4.374,4.374,0,0,1,4.374-4.374h28.556a4.374,4.374,0,0,1,4.373,4.374v18.236a4.374,4.374,0,0,1-4.373,4.373H228.368A4.374,4.374,0,0,1,224,203.429V171.872a4.374,4.374,0,0,1,4.373-4.373Z" transform="translate(-178.148 72.584)" fill="#fff" stroke="#fff" stroke-width="1"/>
    </g>
    <g id="noun-document-5188149-3" data-name="noun-document-5188149" transform="translate(1165.016 193.231)">
      <path id="Path_1079-3" data-name="Path 1079" d="M228.368,167.5h12.037a4.351,4.351,0,0,1,3.009,1.214l3.25,3.1h0a4.353,4.353,0,0,0,3.009,1.214h8.947a1.976,1.976,0,1,1,.04,3.952h-26.4a4.374,4.374,0,0,0-4.374,4.374v21.134a1.939,1.939,0,0,0,.622,1.374,1.962,1.962,0,0,0,3.32-1.434V185.193a4.374,4.374,0,0,1,4.374-4.374h28.556a4.374,4.374,0,0,1,4.373,4.374v18.236a4.374,4.374,0,0,1-4.373,4.373H228.368A4.374,4.374,0,0,1,224,203.429V171.872a4.374,4.374,0,0,1,4.373-4.373Z" transform="translate(-178.148 72.584)" fill="#fff" stroke="#fff" stroke-width="1"/>
    </g>
    <g id="Ellipse_139" data-name="Ellipse 139" transform="translate(1347 423)" fill="#f3def9" stroke="#fff" stroke-width="2">
      <circle cx="30" cy="30" r="30" stroke="none"/>
      <circle cx="30" cy="30" r="29" fill="none"/>
    </g>
    <g id="noun-document-5188149-4" data-name="noun-document-5188149" transform="translate(1165.016 271.689)">
      <path id="Path_1079-4" data-name="Path 1079" d="M228.368,167.5h12.037a4.351,4.351,0,0,1,3.009,1.214l3.25,3.1h0a4.353,4.353,0,0,0,3.009,1.214h8.947a1.976,1.976,0,1,1,.04,3.952h-26.4a4.374,4.374,0,0,0-4.374,4.374v21.134a1.939,1.939,0,0,0,.622,1.374,1.962,1.962,0,0,0,3.32-1.434V185.193a4.374,4.374,0,0,1,4.374-4.374h28.556a4.374,4.374,0,0,1,4.373,4.374v18.236a4.374,4.374,0,0,1-4.373,4.373H228.368A4.374,4.374,0,0,1,224,203.429V171.872a4.374,4.374,0,0,1,4.373-4.373Z" transform="translate(-178.148 72.584)" fill="#fff" stroke="#fff" stroke-width="1"/>
    </g>
    <g id="noun-document-5188149-5" data-name="noun-document-5188149" transform="translate(1317.604 197.535)">
      <path id="Path_1079-5" data-name="Path 1079" d="M226.576,167.5h7.1a2.568,2.568,0,0,1,1.776.716l1.918,1.829h0a2.569,2.569,0,0,0,1.776.716h5.281a1.166,1.166,0,1,1,.024,2.332H228.873a2.581,2.581,0,0,0-2.581,2.581v12.473a1.144,1.144,0,0,0,.367.811,1.158,1.158,0,0,0,1.959-.847v-10.17a2.581,2.581,0,0,1,2.581-2.581h16.854a2.581,2.581,0,0,1,2.581,2.581V188.7a2.581,2.581,0,0,1-2.581,2.581H226.576A2.581,2.581,0,0,1,224,188.7V170.08a2.581,2.581,0,0,1,2.581-2.581Z" transform="translate(-178.148 72.584)" fill="#fefefe" stroke="#fff" stroke-width="1"/>
    </g>
    <path id="Path_1080" data-name="Path 1080" d="M1082,453.466h128.863" fill="none" stroke="#fff" stroke-width="2"/>
    <path id="Path_1081" data-name="Path 1081" d="M1307.863,371.9H1256V528.814h51.863" transform="translate(-97 3.111)" fill="none" stroke="#fff" stroke-width="2"/>
    <path id="Path_1082" data-name="Path 1082" d="M1267.143,453.466H1359.1" transform="translate(-11.143)" fill="#fff" stroke="#fff" stroke-width="2"/>
    <g id="Rectangle_2406" data-name="Rectangle 2406" transform="matrix(0.755, -0.656, 0.656, 0.755, 1395.189, 475.478)" fill="#fcf2ff" stroke="#fff" stroke-width="2">
      <rect id="fill" width="1.503" height="36" rx="0.751" stroke="none"/>
      <path d="M0,1h1.502859354019165M1,0v36M1.502859354019165,35h-1.502859354019165M0.502859354019165,36v-36" fill="none" clip-path="url(#clip)"/>
    </g>
  </g>
</svg>
