<svg xmlns="http://www.w3.org/2000/svg" width="353.061" height="87.776" viewBox="0 0 353.061 87.776">
  <g id="Group_487" data-name="Group 487" transform="translate(-379.939 -770.183)">
    <g id="noun-document-5188149" transform="translate(589.469 530.6)">
      <path id="Path_1079" data-name="Path 1079" d="M233.411,167.5h25.917a9.367,9.367,0,0,1,6.478,2.614l7,6.674h0a9.374,9.374,0,0,0,6.479,2.614h19.265a4.255,4.255,0,1,1,.086,8.509H241.792a9.417,9.417,0,0,0-9.417,9.417v45.5a4.175,4.175,0,0,0,1.339,2.959,4.224,4.224,0,0,0,7.148-3.088V205.6a9.417,9.417,0,0,1,9.417-9.417h61.485a9.417,9.417,0,0,1,9.415,9.417V244.86a9.418,9.418,0,0,1-9.415,9.415H233.411A9.418,9.418,0,0,1,224,244.86V176.915a9.418,9.418,0,0,1,9.415-9.415Z" transform="translate(-178.148 72.584)" fill="#fff" stroke="#fff" stroke-width="1"/>
    </g>
    <g id="noun-filter-1052518" transform="translate(226.856 700.199)">
      <path id="Path_1086" data-name="Path 1086" d="M231.6,75.268a5.811,5.811,0,0,0-5.163-3.03H159.55a5.812,5.812,0,0,0-5.163,3.03,5.929,5.929,0,0,0,.112,5.948c.112.112.112.225.225.337l26.821,35.35v25.474a4.377,4.377,0,0,0,2.132,3.815l13.8,8.641a4.42,4.42,0,0,0,2.357.673,4.642,4.642,0,0,0,2.132-.561,4.4,4.4,0,0,0,2.357-3.928V116.9l26.821-35.35c.112-.112.112-.225.225-.337a5.931,5.931,0,0,0,.225-5.948Z" fill="#fff" stroke="#fff" stroke-width="1"/>
    </g>
    <path id="Path_1087" data-name="Path 1087" d="M1082,453.466h152.761" transform="translate(-629.5 356)" fill="#fff" stroke="#f9f9f9" stroke-width="2"/>
    <path id="Path_1088" data-name="Path 1088" d="M1082,453.466h99.495" transform="translate(-629.979 387.785)" fill="#fff" stroke="#f9f9f9" stroke-width="2"/>
    <path id="noun-back-5196317" d="M169.193,66.276A1.172,1.172,0,1,1,170.6,64.4l16.135,12.1a2.644,2.644,0,0,1,0,4.235L170.6,92.84a1.172,1.172,0,0,1-1.406-1.875l16.136-12.1a.3.3,0,0,0,0-.484Z" transform="translate(419.665 730.846)" fill="#fff" stroke="#f9f9f9" stroke-width="1"/>
    <path id="noun-back-5196317-2" data-name="noun-back-5196317" d="M169.193,66.276A1.172,1.172,0,1,1,170.6,64.4l16.135,12.1a2.644,2.644,0,0,1,0,4.235L170.6,92.84a1.172,1.172,0,0,1-1.406-1.875l16.136-12.1a.3.3,0,0,0,0-.484Z" transform="translate(365.919 762.631)" fill="#fff" stroke="#f9f9f9" stroke-width="1"/>
  </g>
</svg>
