<svg xmlns="http://www.w3.org/2000/svg" width="744.615" height="463.921" viewBox="0 0 744.615 463.921">
  <g id="Group_35" data-name="Group 35" transform="translate(-51.556 -268.097)">
    <path id="Path_129" data-name="Path 129" d="M9336.443,427.913s27,26.9,61.949,4.354,320.825-193.8,320.825-193.8,24.574-14.317,1.482-36.382c-5.234-4.618-264.276-161.915-353.931-216.77-5.11-3.127-15.563-12.583-27.406-2.068-87.866,51.73-245.87,149.527-327.826,199.37-17.375,10.567-36.355,16.621-15.217,32.082s340.123,213.215,340.123,213.215" transform="translate(-8934.982 290.181)" fill="#ffc2a4" stroke="#ffc2a4" stroke-width="1"/>
    <g id="Online_presentation_Two_Color_1_" data-name="Online presentation_Two Color (1)" transform="translate(118.857 264.356)">
      <path id="Path_261" data-name="Path 261" d="M136.808,64.623C84.915,78.664,43.833,111.57,37.356,172.129c-5.451,51.035,4.808,136.553,91.873,153.6,84.216,16.506,388.039,49.351,408.021-57.941,11.362-61.034,12.633-164.574-83.68-197.526C388.278,47.81,248.173,34.519,136.808,64.623Z" transform="translate(1.601 3.595)" fill="#e6e6e6" opacity="0.3"/>
      <ellipse id="Ellipse_45" data-name="Ellipse 45" cx="151.651" cy="15.159" rx="151.651" ry="15.159" transform="translate(235.549 345.826)" fill="#e6e6e6" opacity="0.45"/>
      <ellipse id="Ellipse_46" data-name="Ellipse 46" cx="67.817" cy="15.159" rx="67.817" ry="15.159" transform="translate(65.952 345.826)" fill="#e6e6e6" opacity="0.45"/>
      <path id="Path_262" data-name="Path 262" d="M113.93,109.52s23.427,5.972,23.6,25.372-10.382,53.363,4.686,56.134,24.162-39.153,24.162-39.153l10.718,4.333s-11.438,71.615-50.928,59.809S113.93,109.52,113.93,109.52Z" transform="translate(38.046 36.744)" fill="#9d1d27"/>
      <path id="Path_263" data-name="Path 263" d="M113.93,109.52s23.427,5.972,23.6,25.372-10.382,53.363,4.686,56.134,24.162-39.153,24.162-39.153l10.718,4.333s-11.438,71.615-50.928,59.809S113.93,109.52,113.93,109.52Z" transform="translate(38.046 36.744)" fill="#fff" opacity="0.44"/>
      <path id="Path_264" data-name="Path 264" d="M146.58,142.7s.612-10.366,4.777-13.322,3.461,4.594,3.461,4.594,4.165-4.854,7.656-2.6-7.656,14.73-7.656,14.73Z" transform="translate(60.259 46.928)" fill="#f4a28c"/>
      <path id="Path_265" data-name="Path 265" d="M103.636,84.188a51.357,51.357,0,0,1-1.24,13.643,4.134,4.134,0,0,1-5.221,2.787A9.187,9.187,0,0,1,90.3,93.437l-2.159-7.3A7.4,7.4,0,0,1,91.769,78.4C96.546,75.2,103.651,79.151,103.636,84.188Z" transform="translate(29.154 19.6)" fill="#f4a28c"/>
      <path id="Path_266" data-name="Path 266" d="M89.562,85.49,86.5,112.363l14.929.628L97.663,93.177Z" transform="translate(28.344 23.979)" fill="#f4a28c"/>
      <path id="Path_267" data-name="Path 267" d="M101.945,86.16a33.089,33.089,0,0,1-7.656-.9,6.875,6.875,0,0,1-.306,7.549,5.405,5.405,0,0,1-3.6,2.343,2.756,2.756,0,0,1-3.062-2.925l.429-8.054a8.452,8.452,0,0,1,4.594-7.319,33.425,33.425,0,0,1,3.614-1.531c3.062-1.1,7.488,1.118,10.305-.827a1.991,1.991,0,0,1,3.062,1.424c.337,3.246-.444,8.3-4.885,9.876A7.871,7.871,0,0,1,101.945,86.16Z" transform="translate(28.777 17.965)" fill="#24285b"/>
      <path id="Path_268" data-name="Path 268" d="M93.708,87.213s0-3.17-2.327-3.062-2.511,4.747.7,5.3Z" transform="translate(30.017 23.266)" fill="#f4a28c"/>
      <path id="Path_269" data-name="Path 269" d="M98.869,85.18l2.159,3.261a1.317,1.317,0,0,1-.934,2.037l-3.154.551Z" transform="translate(33.89 23.814)" fill="#f4a28c"/>
      <path id="Path_270" data-name="Path 270" d="M95.52,91.461a9.815,9.815,0,0,1-5.39-1.531s.214,4.992,6.691,8.391Z" transform="translate(30.272 26.337)" fill="#ce8172" opacity="0.31"/>
      <path id="Path_271" data-name="Path 271" d="M79.914,243s-1.24,4.731-5.344,5.466-4.839,4.869-1.011,5.589,13-4.931,13-4.931l-.812-5.956Z" transform="translate(20.139 107.649)" fill="#9d1d27"/>
      <path id="Path_272" data-name="Path 272" d="M122.705,243s1.24,4.731,5.344,5.466,4.839,4.869,1.011,5.589-13-4.946-13-4.946l.812-5.956Z" transform="translate(44.047 107.649)" fill="#9d1d27"/>
      <path id="Path_273" data-name="Path 273" d="M168.785,145.84a41.833,41.833,0,0,0-37.132-42.277C111.487,101.19,75,98.281,60.9,106.166,40.99,117.314,74.4,220.762,74.4,220.762h67.97S167.958,180.063,168.785,145.84Z" transform="translate(11.381 32.227)" fill="#9d1d27"/>
      <path id="Path_274" data-name="Path 274" d="M73.88,110.23s15.312,4.226,11.193,28.373h19.906L105.3,165a58.278,58.278,0,0,0,30.93,50.729l.184.092H68.444l-2.664-8.636Z" transform="translate(17.337 37.121)" opacity="0.08"/>
      <path id="Path_275" data-name="Path 275" d="M93.7,124.52a18.375,18.375,0,0,0-26.4-18.206c-14.056,7-28.848,20.947-32.523,48.738-6.554,49.443,7.059,63.1,32.584,48.585C84.1,194.113,90.957,152.234,93.7,124.52Z" transform="translate(0 34.04)" fill="#9d1d27"/>
      <path id="Path_276" data-name="Path 276" d="M93.7,124.52a18.375,18.375,0,0,0-26.4-18.206c-14.056,7-28.848,20.947-32.523,48.738-6.554,49.443,7.059,63.1,32.584,48.585C84.1,194.113,90.957,152.234,93.7,124.52Z" transform="translate(0 34.04)" fill="#fff" opacity="0.46"/>
      <rect id="Rectangle_100" data-name="Rectangle 100" width="61.646" height="76.56" transform="translate(47.731 167.777)" fill="#ffd200"/>
      <path id="Path_277" data-name="Path 277" d="M55.49,125.929s4.318-9.6,12.954-5.987S71.2,134.963,55.49,125.929Z" transform="translate(11.871 41.848)" fill="#f4a28c"/>
      <rect id="Rectangle_101" data-name="Rectangle 101" width="38.877" height="28.266" transform="translate(57.944 180.731)" fill="#fff" opacity="0.58"/>
      <rect id="Rectangle_102" data-name="Rectangle 102" width="38.877" height="9.938" transform="translate(57.944 218.169)" fill="#fff"/>
      <path id="Path_278" data-name="Path 278" d="M67.52,179.241l11.025,98H91.116s-3.292-74.049,15.634-86.085S135.49,179.18,135.49,179.18Z" transform="translate(18.262 73.748)" fill="#24285b"/>
      <path id="Path_279" data-name="Path 279" d="M127.315,179.22l16.843,98H132.383S117.852,204.378,82.91,193C82.941,192.955,103.75,181.578,127.315,179.22Z" transform="translate(26.437 73.769)" fill="#24285b"/>
      <rect id="Rectangle_103" data-name="Rectangle 103" width="73.023" height="23.228" transform="translate(456.12 334.22)" fill="#e6e6e6"/>
      <rect id="Rectangle_104" data-name="Rectangle 104" width="73.023" height="23.228" transform="translate(440.149 311.496)" fill="#e6e6e6" opacity="0.43"/>
      <path id="Path_280" data-name="Path 280" d="M340.047,211.585S325.47,207.6,322.3,194.037c0,0,22.585-4.594,23.228,18.742Z" transform="translate(153.603 81.445)" fill="#9d1d27" opacity="0.58"/>
      <path id="Path_281" data-name="Path 281" d="M336.752,215.219s-10.182-16.093-1.21-31.129c0,0,17.165,10.9,9.539,31.175Z" transform="translate(158.674 76.356)" fill="#9d1d27" opacity="0.73"/>
      <path id="Path_282" data-name="Path 282" d="M336.77,211.442s5.375-17,21.636-20.212c0,0,3.062,11.04-10.535,20.258Z" transform="translate(161.29 80.149)" fill="#9d1d27"/>
      <path id="Path_283" data-name="Path 283" d="M329.87,204.18l2.94,20.212,18.6.077,2.741-20.181Z" transform="translate(157.624 87.028)" fill="#24285b"/>
      <rect id="Rectangle_105" data-name="Rectangle 105" width="212.654" height="317.756" transform="translate(257.507 40.35)" fill="#ccc"/>
      <rect id="Rectangle_106" data-name="Rectangle 106" width="176.028" height="223.633" transform="translate(275.1 76.563)" fill="#fff"/>
      <rect id="Rectangle_107" data-name="Rectangle 107" width="59.625" height="7.243" transform="translate(345.842 52.768)" opacity="0.12"/>
      <circle id="Ellipse_47" data-name="Ellipse 47" cx="7.87" cy="7.87" r="7.87" transform="translate(318.893 49.292)" fill="#e6e6e6"/>
      <path id="Path_284" data-name="Path 284" d="M251.506,139.409,238.261,153.19a9.892,9.892,0,0,1-15.649-1.792l-17.15-29.2a9.554,9.554,0,0,1-1.041-2.588c-.75-3.062-2.8-10.718-5.084-11.622-2.879-1.072-3.6,6-3.6,6s-8.284-5.528-11.867,0c-2.144,3.277,3.062,7.656,7.656,10.718a19.814,19.814,0,0,1,8.1,10.627c4.395,13.888,15.128,43.364,27.745,45.8,16.552,3.185,45.768-21.743,45.768-21.743Z" transform="translate(79.805 35.871)" fill="#f4a28c"/>
      <path id="Path_285" data-name="Path 285" d="M265.094,98.695s-52.72,8.529-46.242,44.956c4.685,26.383,18.374,24.5,17.731,44.619l-.306,12.786,56.073-1.7s-3.568-25.234,3.445-43.18S322.055,93.9,265.094,98.695Z" transform="translate(98.357 30.802)" fill="#9d1d27"/>
      <path id="Path_286" data-name="Path 286" d="M262.094,78.01l2.45,31.788-17.624.092,5.3-23.167Z" transform="translate(113.56 20.005)" fill="#f4a28c"/>
      <path id="Path_287" data-name="Path 287" d="M274.665,103s-27.393,8.207-18.757,31.8,22.386,38.556,8.544,46.089S230,198.578,230,198.578h47.467l11.27-12.25,9.754-35.493Z" transform="translate(104.572 33.28)" opacity="0.09"/>
      <path id="Path_288" data-name="Path 288" d="M250.07,88.015a11.591,11.591,0,0,0,5.956-2.925s-.72,5.788-7.656,11.009Z" transform="translate(114.331 23.766)" fill="#ce8172" opacity="0.31"/>
      <path id="Path_289" data-name="Path 289" d="M245.411,78.889s-1.072,9.677.4,16.17a4.885,4.885,0,0,0,5.88,3.66c3.262-.8,7.426-2.8,8.636-7.916l3.062-8.422a8.728,8.728,0,0,0-3.614-9.432C254.43,68.875,245.763,72.979,245.411,78.889Z" transform="translate(112.558 16.446)" fill="#f4a28c"/>
      <path id="Path_290" data-name="Path 290" d="M233.743,166.01,223.07,234.347H298.1l-8.269-70.037Z" transform="translate(100.891 65.849)" fill="#24285b"/>
      <path id="Path_291" data-name="Path 291" d="M251.9,83.042s.168-3.736,2.971-3.384,2.6,5.773-1.225,6.125Z" transform="translate(116.206 20.868)" fill="#f4a28c"/>
      <path id="Path_292" data-name="Path 292" d="M246.089,80.27l-2.8,3.675a1.531,1.531,0,0,0,.919,2.465l3.706.8Z" transform="translate(111.451 21.206)" fill="#f4a28c"/>
      <path id="Path_293" data-name="Path 293" d="M259.839,86.365s-11.7,28.71-2.327,34.223,26.031,4.3,28.281-7.932S276.009,97.344,275.9,80.24s-33-15.909-33.35-6.125S259.839,86.365,259.839,86.365Z" transform="translate(111.237 14.161)" fill="#24285b"/>
      <path id="Path_294" data-name="Path 294" d="M280.1,104.114a14.011,14.011,0,0,1,20.717,3.231,75.03,75.03,0,0,1,12.25,45.339c-1.914,34.039,5.39,54.664-30.226,47.008-26.031-5.589-57.573-48.2-57.573-48.2s-10.55-7-2.389-17.3,14.378,14.148,14.378,14.148,42.705,35.616,51.341,25.25C296.158,164.49,257.954,122.856,280.1,104.114Z" transform="translate(99.142 32.166)" fill="#f4a28c"/>
      <circle id="Ellipse_48" data-name="Ellipse 48" cx="13.337" cy="13.337" r="13.337" transform="translate(414.532 86.194)" fill="#9d1d27"/>
      <circle id="Ellipse_49" data-name="Ellipse 49" cx="13.337" cy="13.337" r="13.337" transform="translate(397.26 86.194)" fill="#9d1d27" opacity="0.32"/>
      <circle id="Ellipse_50" data-name="Ellipse 50" cx="23.244" cy="23.244" r="23.244" transform="translate(340.667 243.74)" fill="#9d1d27"/>
      <path id="Shape" d="M251.93,194.617a10.351,10.351,0,0,1-3.062-5.834.888.888,0,0,1,.26-.735l1.96-1.96A.857.857,0,0,0,251.21,185l-3.062-4.869a.888.888,0,0,0-1.133-.322l-5.038,2.373a.857.857,0,0,0-.475.873,26.26,26.26,0,0,0,22.1,22.111.857.857,0,0,0,.873-.49l2.373-5.022a.873.873,0,0,0-.322-1.133l-4.961-3.062a.873.873,0,0,0-1.087.123l-1.975,1.975a.9.9,0,0,1-.735.245,10.29,10.29,0,0,1-5.834-3.062Z" transform="translate(110.679 74.036)" fill="#fff"/>
      <rect id="Rectangle_108" data-name="Rectangle 108" width="53.516" height="82.042" transform="translate(417.901 143.048)" fill="#ccc" opacity="0.09"/>
      <rect id="Rectangle_109" data-name="Rectangle 109" width="104.536" height="82.042" transform="translate(423.934 136.433)" fill="#e6e6e6"/>
      <rect id="Rectangle_110" data-name="Rectangle 110" width="104.536" height="8.743" transform="translate(423.934 127.69)" fill="#b3b3b3"/>
      <path id="Path_295" data-name="Path 295" d="M327.45,104.66l-25.617,20.426s-24.04,24.117-8.958,39.888,37.071-7.319,37.071-7.319Z" transform="translate(135.331 34.162)" fill="#9d1d27"/>
      <path id="Path_296" data-name="Path 296" d="M327.45,104.66l-25.617,20.426s-24.04,24.117-8.958,39.888,37.071-7.319,37.071-7.319Z" transform="translate(135.331 34.162)" opacity="0.08"/>
      <rect id="Rectangle_111" data-name="Rectangle 111" width="2.955" height="19.125" transform="matrix(0.786, -0.618, 0.618, 0.786, 432.386, 148.09)" fill="#24285b"/>
      <path id="Path_297" data-name="Path 297" d="M297.141,119.2s3.981-4.7,7.564-3.154,2.649,8.682-3.6,8.8S297.141,119.2,297.141,119.2Z" transform="translate(140.022 40.046)" fill="#f4a28c"/>
      <path id="Path_298" data-name="Path 298" d="M321.661,85.748a37.515,37.515,0,0,0,.475,10.137,3.063,3.063,0,0,0,3.736,2.22,6.8,6.8,0,0,0,5.313-5.1l1.837-5.329a5.5,5.5,0,0,0-2.4-5.865C327.174,79.332,321.8,82.027,321.661,85.748Z" transform="translate(153.185 21.516)" fill="#f4a28c"/>
      <path id="Path_299" data-name="Path 299" d="M331.556,85.94l3.093,19.783-11.009.934,2.174-14.776Z" transform="translate(154.315 24.218)" fill="#f4a28c"/>
      <path id="Path_300" data-name="Path 300" d="M322.163,86.56l-1.7,2.358a.98.98,0,0,0,.612,1.531l2.327.444Z" transform="translate(152.53 24.547)" fill="#f4a28c"/>
      <path id="Path_301" data-name="Path 301" d="M324.872,92.653a7.273,7.273,0,0,0,3.583-2.113,11.362,11.362,0,0,1-4.2,7.258Z" transform="translate(154.644 26.661)" fill="#ce8172" opacity="0.31"/>
      <path id="Path_302" data-name="Path 302" d="M309.255,187.2h42.231c13.413-21.115,43.7-77.326-5.727-88.335l-13.781,1.164s-27.194,7.993-26.107,33.564C306.82,154.2,308.6,178.544,309.255,187.2Z" transform="translate(144.859 31.081)" fill="#9d1d27"/>
      <path id="Path_303" data-name="Path 303" d="M308.719,181.517h41.756c5.788-11.928,23.642-53.592.505-71.967a23.458,23.458,0,0,0-12.02,21.973c.9,15.542-1.654,21.115-17.685,19.324s-14.347,5.16-14.347,5.16Z" transform="translate(145.41 36.76)" opacity="0.08"/>
      <path id="Path_304" data-name="Path 304" d="M321.817,79.857s-3.445,8.452,3.261,9.187,2.465,5.267,6.416,5.941,8.452-8.912,4.594-13.781S323.746,75.967,321.817,79.857Z" transform="translate(152.876 19.583)" fill="#24285b"/>
      <path id="Path_305" data-name="Path 305" d="M341.751,116.741a10.106,10.106,0,0,1,17.012-8.483,54.22,54.22,0,0,1,16.568,33.947c4,33.365-7.748,66.179-59.38,13.168l5.252-6.125s25.663,17.716,33.243,14.684C360.248,161.667,344.078,137.673,341.751,116.741Z" transform="translate(150.23 34.591)" fill="#9d1d27"/>
      <path id="Path_306" data-name="Path 306" d="M341.751,116.741a10.106,10.106,0,0,1,17.012-8.483,54.22,54.22,0,0,1,16.568,33.947c4,33.365-7.748,66.179-59.38,13.168l5.252-6.125s25.663,17.716,33.243,14.684C360.248,161.667,344.078,137.673,341.751,116.741Z" transform="translate(150.23 34.591)" fill="#fff" opacity="0.46"/>
      <rect id="Rectangle_112" data-name="Rectangle 112" width="27.393" height="39.995" transform="translate(437.152 161.792) rotate(-7.21)" fill="#ffd200"/>
      <path id="Path_307" data-name="Path 307" d="M319.77,140.472s-10.627-5.13-8.039-8.988,11.928,4.486,11.928,4.486Z" transform="translate(147.773 47.87)" fill="#f4a28c"/>
      <rect id="Rectangle_113" data-name="Rectangle 113" width="67.159" height="70.604" transform="translate(257.782 247.507)" fill="#ccc" opacity="0.09"/>
      <rect id="Rectangle_114" data-name="Rectangle 114" width="89.974" height="70.604" transform="translate(226.99 239.086)" fill="#e6e6e6"/>
      <rect id="Rectangle_115" data-name="Rectangle 115" width="89.974" height="9.019" transform="translate(226.99 230.082)" fill="#b3b3b3"/>
      <path id="Path_308" data-name="Path 308" d="M172.009,228.85,169.1,194.138s14.24-1.9,15.511-1.531c.781.2.965,20.641.98,36.274Z" transform="translate(72.222 80.855)" fill="#f4a28c"/>
      <path id="Path_309" data-name="Path 309" d="M187.24,160.805s5.451-4.211,9.432-.919.628,15.726,9.754,13.245c0,0-10.137,7.656-16.384-5.88Z" transform="translate(81.858 62.831)" fill="#24285b"/>
      <path id="Path_310" data-name="Path 310" d="M191.17,169.154s3.6-.352,2.343-5.283-5.313-4.93-6.523-3.706Z" transform="translate(81.725 63.286)" fill="#9d1d27"/>
      <path id="Path_311" data-name="Path 311" d="M182.83,165.145a26.4,26.4,0,0,0,1.363,6.952,2.128,2.128,0,0,0,2.8,1.148,4.762,4.762,0,0,0,3.154-4.058l.72-3.859a3.843,3.843,0,0,0-2.266-3.813,4.088,4.088,0,0,0-5.773,3.629Z" transform="translate(79.515 64.171)" fill="#f4a28c"/>
      <path id="Path_312" data-name="Path 312" d="M190.513,165.32l2.144,13.8-7.687.643,1.485-10.045Z" transform="translate(80.652 66.385)" fill="#f4a28c"/>
      <path id="Path_313" data-name="Path 313" d="M183.352,165.51l-.934,1.792a.674.674,0,0,0,.566,1h1.669Z" transform="translate(79.253 66.486)" fill="#f4a28c"/>
      <path id="Path_314" data-name="Path 314" d="M186.059,168.869a5.191,5.191,0,0,0,2.4-1.409,3.721,3.721,0,0,1-2.833,4.287Z" transform="translate(81.003 67.522)" fill="#ce8172" opacity="0.31"/>
      <path id="Path_315" data-name="Path 315" d="M188.4,165.945s-.214-1.638,1.026-1.684,1.531,2.3,0,2.756Z" transform="translate(82.469 65.822)" fill="#f4a28c"/>
      <path id="Path_316" data-name="Path 316" d="M184.364,165.943a12.1,12.1,0,0,0,4.073-.291s1.194,4.594,5.022,5.589c0,0,3.062-7.289-1.531-9.723-3.813-2.036-6.661-3.874-9.478-.949a3.185,3.185,0,0,0,1.914,5.375Z" transform="translate(78.839 63.052)" fill="#24285b"/>
      <path id="Path_317" data-name="Path 317" d="M186.12,165.6s0-1.9,1.531-1.715,1.669,2.4-.168,3.4Z" transform="translate(81.263 65.616)" fill="#f4a28c"/>
      <path id="Path_318" data-name="Path 318" d="M178.248,238.534l-.658-8.146A15.787,15.787,0,0,0,174.282,222c-22.417-29.093,19.906-47.023,19.906-47.023l7.656-.643c41.526,9.325,26.031,45.936,15.174,64.2Z" transform="translate(71.496 71.171)" fill="#9d1d27"/>
      <path id="Path_319" data-name="Path 319" d="M174.754,233.025l-.444-6.232s2.71-11.04,15.894-1.883,20.579-1.409,9.187-14.409a20.809,20.809,0,0,1-2.052-25.8l31.1,31.818-7.855,16.506Z" transform="translate(74.989 76.68)" opacity="0.08"/>
      <path id="Path_320" data-name="Path 320" d="M232.242,236.814H190.057a127.177,127.177,0,0,1-10.948-8.682h0c-3.9-1.057-5.727-7.656-2.45-8.575s5.191,4.333,5.191,4.333,26.107,18.007,33.794,7.809c2.373-3.154-.444-8.192-2.557-12.25-3.828-7.212-15.986-19.768-16.062-31.007,0-9.187,10.826-14.164,18.022-8.437,9.738,7.656,23.427,20.748,18.084,52.719A36.954,36.954,0,0,1,232.242,236.814Z" transform="translate(75.336 72.89)" fill="#f4a28c"/>
      <path id="Path_321" data-name="Path 321" d="M196.939,176.345s1.21-3.246-4.854-4.211-11.055,1.409-9.187,5.8C182.837,177.937,187.262,181.811,196.939,176.345Z" transform="translate(79.34 69.891)" fill="#9d1d27"/>
      <path id="Path_322" data-name="Path 322" d="M196.939,176.345s1.21-3.246-4.854-4.211-11.055,1.409-9.187,5.8C182.837,177.937,187.262,181.811,196.939,176.345Z" transform="translate(79.34 69.891)" fill="#fff" opacity="0.46"/>
      <circle id="Ellipse_51" data-name="Ellipse 51" cx="15.465" cy="15.465" r="15.465" transform="translate(348.369 313.854)" opacity="0.09"/>
    </g>
  </g>
</svg>
