<svg xmlns="http://www.w3.org/2000/svg" width="116.456" height="143.859" viewBox="0 0 116.456 143.859">
  <g id="noun-checklist-5210926" transform="translate(-151.67 -35)">
    <path id="Path_1096" data-name="Path 1096" d="M455,51.5V63.779a10.278,10.278,0,0,0,10.276,10.276h12.283Z" transform="translate(-214.275 -11.653)" fill="#fff" fill-rule="evenodd"/>
    <path id="Path_1097" data-name="Path 1097" d="M268.125,72.676v95.907a10.278,10.278,0,0,1-10.276,10.276h-95.9a10.275,10.275,0,0,1-10.276-10.276V45.276A10.278,10.278,0,0,1,161.946,35h68.5a3.427,3.427,0,0,1,3.426,3.426v13.7A17.121,17.121,0,0,0,251,69.253h13.7a3.426,3.426,0,0,1,3.424,3.424ZM166.373,150.454l6.851,6.85a3.421,3.421,0,0,0,4.843,0l13.7-13.7a3.425,3.425,0,1,0-4.844-4.843l-11.279,11.279-4.428-4.429a3.425,3.425,0,0,0-4.844,4.844Zm36.675,1H251a3.426,3.426,0,1,0,0-6.851H203.048a3.426,3.426,0,0,0,0,6.851Zm-36.675-28.406,6.851,6.851a3.423,3.423,0,0,0,4.843,0l13.7-13.7a3.425,3.425,0,0,0-4.844-4.843l-11.279,11.279-4.428-4.429a3.425,3.425,0,0,0-4.844,4.843Zm36.675,1H251a3.425,3.425,0,1,0,0-6.85H203.048a3.425,3.425,0,1,0,0,6.85Zm-36.675-28.4,6.851,6.85a3.421,3.421,0,0,0,4.843,0l13.7-13.7a3.425,3.425,0,0,0-4.844-4.844l-11.279,11.28-4.428-4.429a3.425,3.425,0,0,0-4.844,4.843Zm36.675,1H251a3.425,3.425,0,1,0,0-6.85H203.048a3.425,3.425,0,1,0,0,6.85Z" fill="#fff" fill-rule="evenodd"/>
  </g>
</svg>
